<svg width="72" height="20" viewBox="0 0 72 20" fill="none" xmlns="http://www.w3.org/2000/svg">
<path d="M34.0389 14.272C34.1562 14.272 34.2602 14.3173 34.3509 14.408L35.1989 15.328C34.7296 15.9093 34.1509 16.3547 33.4629 16.664C32.7802 16.9733 31.9589 17.128 30.9989 17.128C30.1402 17.128 29.3669 16.9813 28.6789 16.688C27.9962 16.3947 27.4122 15.9867 26.9269 15.464C26.4416 14.9413 26.0682 14.3173 25.8069 13.592C25.5509 12.8667 25.4229 12.0747 25.4229 11.216C25.4229 10.3467 25.5616 9.552 25.8389 8.832C26.1162 8.10667 26.5056 7.48267 27.0069 6.96C27.5136 6.43733 28.1162 6.032 28.8149 5.744C29.5136 5.45067 30.2869 5.304 31.1349 5.304C31.9776 5.304 32.7242 5.44267 33.3749 5.72C34.0309 5.99733 34.5882 6.36 35.0469 6.808L34.3269 7.808C34.2842 7.872 34.2282 7.928 34.1589 7.976C34.0949 8.024 34.0042 8.048 33.8869 8.048C33.8069 8.048 33.7242 8.02667 33.6389 7.984C33.5536 7.936 33.4602 7.88 33.3589 7.816C33.2576 7.74667 33.1402 7.672 33.0069 7.592C32.8736 7.512 32.7189 7.44 32.5429 7.376C32.3669 7.30667 32.1616 7.25067 31.9269 7.208C31.6976 7.16 31.4309 7.136 31.1269 7.136C30.6096 7.136 30.1349 7.22933 29.7029 7.416C29.2762 7.59733 28.9082 7.864 28.5989 8.216C28.2896 8.56267 28.0496 8.98933 27.8789 9.496C27.7082 9.99733 27.6229 10.5707 27.6229 11.216C27.6229 11.8667 27.7136 12.4453 27.8949 12.952C28.0816 13.4587 28.3322 13.8853 28.6469 14.232C28.9616 14.5787 29.3322 14.8453 29.7589 15.032C30.1856 15.2133 30.6442 15.304 31.1349 15.304C31.4282 15.304 31.6922 15.288 31.9269 15.256C32.1669 15.224 32.3856 15.1733 32.5829 15.104C32.7856 15.0347 32.9749 14.9467 33.1509 14.84C33.3322 14.728 33.5109 14.592 33.6869 14.432C33.7402 14.384 33.7962 14.3467 33.8549 14.32C33.9136 14.288 33.9749 14.272 34.0389 14.272ZM38.1938 10.216C38.4498 9.72533 38.7538 9.34133 39.1058 9.064C39.4578 8.78133 39.8738 8.64 40.3538 8.64C40.7324 8.64 41.0364 8.72267 41.2658 8.888L41.1378 10.368C41.1111 10.464 41.0711 10.5333 41.0178 10.576C40.9698 10.6133 40.9031 10.632 40.8178 10.632C40.7378 10.632 40.6178 10.6187 40.4578 10.592C40.3031 10.5653 40.1511 10.552 40.0018 10.552C39.7831 10.552 39.5884 10.584 39.4178 10.648C39.2471 10.712 39.0924 10.8053 38.9538 10.928C38.8204 11.0453 38.7004 11.1893 38.5938 11.36C38.4924 11.5307 38.3964 11.7253 38.3058 11.944V17H36.3298V8.792H37.4898C37.6924 8.792 37.8338 8.82933 37.9138 8.904C37.9938 8.97333 38.0471 9.10133 38.0738 9.288L38.1938 10.216ZM45.6961 8.664C46.3041 8.664 46.8561 8.76267 47.3521 8.96C47.8535 9.15733 48.2801 9.43733 48.6321 9.8C48.9895 10.1627 49.2641 10.6053 49.4561 11.128C49.6481 11.6507 49.7441 12.2347 49.7441 12.88C49.7441 13.5307 49.6481 14.1173 49.4561 14.64C49.2641 15.1627 48.9895 15.608 48.6321 15.976C48.2801 16.344 47.8535 16.6267 47.3521 16.824C46.8561 17.0213 46.3041 17.12 45.6961 17.12C45.0828 17.12 44.5255 17.0213 44.0241 16.824C43.5228 16.6267 43.0935 16.344 42.7361 15.976C42.3841 15.608 42.1095 15.1627 41.9121 14.64C41.7201 14.1173 41.6241 13.5307 41.6241 12.88C41.6241 12.2347 41.7201 11.6507 41.9121 11.128C42.1095 10.6053 42.3841 10.1627 42.7361 9.8C43.0935 9.43733 43.5228 9.15733 44.0241 8.96C44.5255 8.76267 45.0828 8.664 45.6961 8.664ZM45.6961 15.6C46.3788 15.6 46.8828 15.3707 47.2081 14.912C47.5388 14.4533 47.7041 13.7813 47.7041 12.896C47.7041 12.0107 47.5388 11.336 47.2081 10.872C46.8828 10.408 46.3788 10.176 45.6961 10.176C45.0028 10.176 44.4881 10.4107 44.1521 10.88C43.8215 11.344 43.6561 12.016 43.6561 12.896C43.6561 13.776 43.8215 14.448 44.1521 14.912C44.4881 15.3707 45.0028 15.6 45.6961 15.6ZM53.8314 17.128C53.1167 17.128 52.5674 16.928 52.1834 16.528C51.8047 16.1227 51.6154 15.5653 51.6154 14.856V10.272H50.7754C50.6687 10.272 50.5781 10.2373 50.5034 10.168C50.4287 10.0987 50.3914 9.99467 50.3914 9.856V9.072L51.7114 8.856L52.1274 6.616C52.1541 6.50933 52.2047 6.42667 52.2794 6.368C52.3541 6.30933 52.4501 6.28 52.5674 6.28H53.5914V8.864H55.7834V10.272H53.5914V14.72C53.5914 14.976 53.6527 15.176 53.7754 15.32C53.9034 15.464 54.0767 15.536 54.2954 15.536C54.4181 15.536 54.5194 15.5227 54.5994 15.496C54.6847 15.464 54.7567 15.432 54.8154 15.4C54.8794 15.368 54.9354 15.3387 54.9834 15.312C55.0314 15.28 55.0794 15.264 55.1274 15.264C55.1861 15.264 55.2341 15.28 55.2714 15.312C55.3087 15.3387 55.3487 15.3813 55.3914 15.44L55.9834 16.4C55.6954 16.64 55.3647 16.8213 54.9914 16.944C54.6181 17.0667 54.2314 17.128 53.8314 17.128ZM60.618 8.664C61.226 8.664 61.778 8.76267 62.274 8.96C62.7753 9.15733 63.202 9.43733 63.554 9.8C63.9113 10.1627 64.186 10.6053 64.378 11.128C64.57 11.6507 64.666 12.2347 64.666 12.88C64.666 13.5307 64.57 14.1173 64.378 14.64C64.186 15.1627 63.9113 15.608 63.554 15.976C63.202 16.344 62.7753 16.6267 62.274 16.824C61.778 17.0213 61.226 17.12 60.618 17.12C60.0047 17.12 59.4473 17.0213 58.946 16.824C58.4447 16.6267 58.0153 16.344 57.658 15.976C57.306 15.608 57.0313 15.1627 56.834 14.64C56.642 14.1173 56.546 13.5307 56.546 12.88C56.546 12.2347 56.642 11.6507 56.834 11.128C57.0313 10.6053 57.306 10.1627 57.658 9.8C58.0153 9.43733 58.4447 9.15733 58.946 8.96C59.4473 8.76267 60.0047 8.664 60.618 8.664ZM60.618 15.6C61.3007 15.6 61.8047 15.3707 62.13 14.912C62.4607 14.4533 62.626 13.7813 62.626 12.896C62.626 12.0107 62.4607 11.336 62.13 10.872C61.8047 10.408 61.3007 10.176 60.618 10.176C59.9247 10.176 59.41 10.4107 59.074 10.88C58.7433 11.344 58.578 12.016 58.578 12.896C58.578 13.776 58.7433 14.448 59.074 14.912C59.41 15.3707 59.9247 15.6 60.618 15.6Z" fill="white"/>
<path d="M19.9999 5.50225V9.8766C19.965 9.99986 19.9254 10.1231 19.8859 10.244C19.8843 10.246 19.8835 10.2485 19.8836 10.251C19.8836 10.2533 19.8836 10.2533 19.8813 10.2557C19.3912 11.7126 18.5655 13.0339 17.4708 14.1129C16.376 15.1919 15.0429 15.9984 13.579 16.4672C13.3302 16.5463 13.0791 16.616 12.8232 16.6742C12.8202 16.6754 12.8171 16.6762 12.8139 16.6765C12.0916 16.8421 11.3528 16.9256 10.6117 16.9253H10.5117C11.7048 16.8368 12.8547 16.4415 13.8501 15.7777C14.8455 15.114 15.6525 14.2044 16.193 13.137V13.1347C16.6487 12.2371 16.9035 11.251 16.9396 10.245C16.9758 9.23901 16.7924 8.23718 16.4023 7.3092C16.3511 7.06966 16.2906 6.83246 16.2209 6.5999C16.193 6.50223 16.1604 6.40223 16.1278 6.30456C16.1092 6.2441 16.0883 6.18363 16.0674 6.12549C16.0418 6.05573 16.0185 5.98363 15.9883 5.91387C15.9697 5.86503 15.9511 5.81387 15.9302 5.76271C15.893 5.66969 15.8534 5.57434 15.8139 5.47899C15.7674 5.37434 15.7232 5.26969 15.672 5.16737C15.6441 5.11155 15.6185 5.05807 15.5883 5.00225C15.5651 4.94877 15.5348 4.89295 15.5069 4.83946C15.479 4.78598 15.4488 4.72784 15.4162 4.67203C15.3744 4.58831 15.3255 4.50924 15.279 4.43017C15.2162 4.32087 15.1488 4.21389 15.0837 4.10692C15.0767 4.10459 15.0767 4.10227 15.0744 4.09529C15.0046 3.98599 14.9325 3.87669 14.8558 3.77436C14.7837 3.66739 14.7069 3.56041 14.6255 3.45809C14.5488 3.35577 14.4697 3.25112 14.3837 3.15112C14.3765 3.14572 14.3709 3.13849 14.3674 3.13019C14.2907 3.03717 14.2139 2.94647 14.1302 2.8581C14.0442 2.76043 13.9581 2.6674 13.8651 2.57438C13.7767 2.47903 13.686 2.38834 13.5883 2.29764C13.5023 2.21392 13.4116 2.13021 13.3163 2.04881L13.3023 2.03486C13.2535 1.993 13.2046 1.94881 13.1558 1.90928C13.1046 1.86509 13.0535 1.82323 13.0023 1.7837C12.9046 1.7023 12.8 1.62091 12.6953 1.54417C12.6419 1.50231 12.5884 1.46045 12.5326 1.42324C12.4767 1.38603 12.4209 1.3465 12.3674 1.30696C12.3442 1.29068 12.3209 1.27673 12.2977 1.26045C12.1977 1.19301 12.093 1.12557 11.9884 1.06046C11.8674 0.983714 11.7442 0.911619 11.6186 0.841853C11.5698 0.813946 11.5233 0.786042 11.4721 0.762787C11.4233 0.73488 11.3768 0.71162 11.3256 0.686039C11.279 0.659237 11.2308 0.635168 11.1814 0.613947C11.0721 0.558134 10.9582 0.504646 10.8442 0.453484C10.8117 0.437205 10.7768 0.420931 10.7419 0.406978C10.6605 0.369769 10.5768 0.339537 10.4931 0.304654C10.4776 0.296447 10.4612 0.290193 10.4442 0.286045C10.3861 0.260464 10.3279 0.237211 10.2675 0.216281C10.2117 0.195351 10.1559 0.174419 10.0954 0.155814L10.0907 0.153487L10.0884 0.151166C10.0326 0.130236 9.97446 0.111632 9.914 0.0930273C9.81632 0.058144 9.71633 0.0302389 9.61865 6.74194e-06H14.4953C15.2183 -0.00112566 15.9344 0.140404 16.6026 0.416487C17.2708 0.692571 17.878 1.09778 18.3893 1.6089C18.9006 2.12003 19.3061 2.72703 19.5825 3.39511C19.8588 4.0632 20.0007 4.77926 19.9999 5.50225Z" fill="url(#paint0_linear)"/>
<path d="M19.9995 9.87646V14.495C20.0008 15.2182 19.8592 15.9346 19.583 16.6029C19.3068 17.2714 18.9014 17.8786 18.39 18.39C17.8786 18.9014 17.2713 19.3069 16.6029 19.583C15.9345 19.8592 15.2182 20.0008 14.495 19.9996H8.62527C8.49969 19.9345 8.37411 19.867 8.25086 19.7949H8.24853C8.24621 19.7926 8.24621 19.7926 8.24388 19.7926C6.07145 18.5398 4.45998 16.504 3.73929 14.102C3.60304 13.6483 3.5012 13.185 3.43465 12.716V12.7113C3.40209 12.4904 3.37651 12.2648 3.36023 12.0392C3.79687 13.4593 4.67735 14.702 5.87236 15.5848C7.06739 16.4675 8.51395 16.9438 9.99967 16.9438C10.1741 16.9438 10.3439 16.9391 10.5113 16.9252H10.6113C11.3524 16.9255 12.0912 16.842 12.8136 16.6764C12.8168 16.676 12.8199 16.6752 12.8229 16.674C13.0787 16.6159 13.3299 16.5461 13.5787 16.4671C15.0426 15.9982 16.3757 15.1918 17.4704 14.1127C18.5652 13.0337 19.3909 11.7124 19.8809 10.2555C19.8832 10.2532 19.8832 10.2532 19.8832 10.2509C19.8831 10.2483 19.884 10.2459 19.8856 10.2439C19.9251 10.123 19.9642 9.99972 19.9995 9.87646Z" fill="url(#paint1_linear)"/>
<path d="M8.62547 19.9999H5.50458C4.04469 19.9998 2.64462 19.4199 1.61232 18.3876C0.580027 17.3553 6.16727e-05 15.9552 0 14.4953V9.75585C0.093022 9.51632 0.195348 9.27911 0.306975 9.04888L0.311624 9.04423C0.372088 8.91865 0.434878 8.7954 0.502319 8.67447C0.541853 8.60005 0.583718 8.52564 0.623252 8.45122C0.706972 8.31169 0.788366 8.17448 0.876737 8.0396C0.960457 7.90937 1.04417 7.78146 1.13487 7.65356C1.22557 7.52565 1.32091 7.4024 1.41626 7.27914C1.51161 7.15589 1.61161 7.03729 1.71161 6.92101C1.81161 6.80473 1.91626 6.68845 2.02556 6.5745C2.13486 6.46055 2.24183 6.35125 2.35578 6.24427C2.57904 6.03032 2.81392 5.82568 3.0581 5.63265C3.29763 5.44196 3.54646 5.26522 3.80227 5.09778C3.80897 5.09341 3.81597 5.08952 3.8232 5.08615C3.95111 5.00243 4.08367 4.92336 4.2139 4.84429C4.22157 4.84183 4.22869 4.83787 4.23483 4.83267L4.4232 4.72802C4.58599 4.63964 4.74877 4.55593 4.91621 4.47686C4.99528 4.43732 5.07668 4.40244 5.15807 4.36523C5.25807 4.32104 5.36039 4.27686 5.46039 4.23733C5.55574 4.20012 5.65341 4.16291 5.75109 4.1257L5.75574 4.12337C5.8162 4.10244 5.87899 4.07919 5.93946 4.05826C6.0255 4.03035 6.1162 4.00012 6.20457 3.97454C6.26634 3.95198 6.32922 3.93259 6.39294 3.9164C6.54642 3.87221 6.70224 3.83035 6.85805 3.79547C6.84765 3.80454 6.83679 3.8131 6.82549 3.82105C5.3763 4.56762 4.23541 5.79956 3.60207 7.3017C2.96873 8.80384 2.88322 10.4807 3.36042 12.0395C3.3767 12.2651 3.40228 12.4907 3.43484 12.7116V12.7163C3.5014 13.1853 3.60323 13.6486 3.73948 14.1023C4.46027 16.5039 6.07152 18.5393 8.24361 19.792C8.24594 19.792 8.24594 19.792 8.24826 19.7943H8.25059C8.37431 19.8673 8.49942 19.9348 8.62547 19.9999Z" fill="url(#paint2_linear)"/>
<path d="M16.3951 7.28361C16.3463 7.05338 16.2881 6.82315 16.2207 6.5999C16.1998 6.52548 16.1742 6.44641 16.1486 6.372C16.1393 6.33944 16.1323 6.31618 16.1277 6.30455C16.1091 6.24409 16.0881 6.18363 16.0672 6.12549C16.0416 6.05572 16.0184 5.98363 15.9881 5.91386C15.9695 5.86503 15.9509 5.81386 15.93 5.7627C15.8928 5.66968 15.8533 5.57433 15.8137 5.47899C15.7672 5.37434 15.7207 5.26969 15.6719 5.16736C15.644 5.11155 15.6184 5.05806 15.5881 5.00225C15.5626 4.94876 15.5347 4.89295 15.5068 4.83946C15.4788 4.78597 15.4486 4.72783 15.4161 4.67202C15.3742 4.5883 15.3254 4.50923 15.2788 4.43016C15.2161 4.32086 15.1486 4.21389 15.0835 4.10691C15.0765 4.10459 15.0765 4.10226 15.0742 4.09529C15.0021 3.98599 14.93 3.87901 14.8556 3.77436C14.7812 3.66971 14.7044 3.56274 14.6254 3.45809C14.5463 3.35344 14.4672 3.25344 14.3835 3.15111C14.3763 3.1457 14.3707 3.13849 14.3672 3.13018C14.2882 3.03716 14.2114 2.94647 14.13 2.8581C14.0417 2.76042 13.9556 2.6674 13.8649 2.57438C13.7742 2.48136 13.6858 2.38834 13.5882 2.29763C13.5021 2.21391 13.4114 2.1302 13.3161 2.04881L13.3021 2.03485C13.2533 1.99299 13.2045 1.9488 13.1556 1.90927L13.0021 1.78369C12.9045 1.70229 12.7998 1.6209 12.6952 1.54416C12.6417 1.50462 12.5859 1.46509 12.5324 1.42323C12.4789 1.38137 12.4207 1.34649 12.3673 1.30696C12.344 1.29068 12.3208 1.27672 12.2975 1.26044C12.1975 1.193 12.0928 1.12556 11.9882 1.06045C11.8673 0.983706 11.744 0.911614 11.6184 0.841848C11.5696 0.813941 11.5231 0.786034 11.4719 0.762779C11.4231 0.734872 11.3766 0.711612 11.3254 0.686031C11.2788 0.659229 11.2307 0.63516 11.1812 0.613939C11.0719 0.558126 10.9603 0.504639 10.844 0.453477C10.8115 0.437198 10.7766 0.420924 10.7417 0.406971C10.658 0.369762 10.5766 0.334879 10.4929 0.304646C10.4774 0.29644 10.461 0.290186 10.444 0.286037C10.3859 0.260456 10.3278 0.237203 10.2673 0.216274C10.2115 0.195344 10.1557 0.174412 10.0952 0.155808L10.0906 0.15348L10.0882 0.151159C10.0324 0.130229 9.97427 0.111625 9.91381 0.0930204C9.81614 0.0581372 9.71614 0.0302321 9.61846 7.86676e-08H5.50225C4.77965 -0.000122116 4.0641 0.142111 3.39649 0.418582C2.72887 0.695052 2.12225 1.10034 1.6113 1.6113C1.10034 2.12225 0.69506 2.72887 0.418589 3.39648C0.142118 4.0641 -0.000122116 4.77962 7.86638e-08 5.50224V9.75566C0.0953474 9.51148 0.199998 9.27195 0.313951 9.0394C0.446507 8.76498 0.593015 8.49987 0.748826 8.24173C0.788361 8.17429 0.832551 8.10685 0.876736 8.03941C0.960456 7.90918 1.04417 7.78128 1.13487 7.65337C1.22557 7.52547 1.31626 7.40221 1.41626 7.27896C1.50928 7.15803 1.60696 7.0371 1.71161 6.92082C1.81626 6.80455 1.91626 6.68594 2.02556 6.57432C2.13021 6.46037 2.24183 6.34874 2.35578 6.24409C2.57947 6.02854 2.81387 5.82442 3.05809 5.63247C3.29602 5.44299 3.54362 5.26601 3.79994 5.10225C3.80713 5.09604 3.81492 5.0906 3.8232 5.08597C3.94645 5.00457 4.06971 4.92783 4.19761 4.85341C4.60391 4.61928 5.02583 4.41337 5.46039 4.23714C5.55573 4.19994 5.65341 4.16273 5.75108 4.12552L5.75573 4.12319C5.81619 4.10226 5.87898 4.07901 5.93945 4.05808C5.94982 4.05605 5.95996 4.05294 5.96968 4.04878C6.04875 4.02087 6.12782 3.99761 6.20456 3.97436C6.26633 3.9518 6.32921 3.9324 6.39293 3.91622C6.54642 3.87203 6.70223 3.83017 6.85804 3.79529C6.84641 3.80227 6.83711 3.8139 6.82548 3.82087C6.85106 3.80692 6.87432 3.79762 6.89757 3.78366H6.90455C7.86475 3.30081 8.92508 3.05065 9.99985 3.05344C11.7565 3.05144 13.4483 3.71736 14.7323 4.9162C14.7393 4.92318 14.7463 4.92783 14.7486 4.93481C15.1461 5.30671 15.4981 5.72433 15.7974 6.17898L15.7998 6.1813C15.8509 6.26037 15.9021 6.33944 15.9509 6.42083C16.1225 6.70571 16.2733 7.00261 16.4021 7.30919C16.3992 7.30084 16.3968 7.29228 16.3951 7.28361Z" fill="url(#paint3_linear)"/>
<g style="mix-blend-mode:multiply" opacity="0.08">
<g style="mix-blend-mode:multiply" opacity="0.08">
<path d="M20.0001 5.71381V9.87654C19.4117 11.9109 18.1777 13.6987 16.4842 14.9702C14.7907 16.2417 12.7296 16.9279 10.6118 16.9253H10.5118C11.7049 16.8367 12.8549 16.4414 13.8503 15.7777C14.8457 15.1139 15.6527 14.2043 16.1931 13.137C16.1955 13.1346 16.1931 13.1346 16.1931 13.1346C17.635 11.4812 19.0187 9.11143 20.0001 5.71381Z" fill="black"/>
</g>
</g>
<g style="mix-blend-mode:multiply" opacity="0.08">
<g style="mix-blend-mode:multiply" opacity="0.08">
<path d="M11.3345 19.9998H8.62525C7.14037 19.2337 5.8767 18.0997 4.95494 16.7061C4.03317 15.3125 3.48413 13.7058 3.36023 12.0395C3.71564 13.1969 4.36833 14.2409 5.25322 15.0674C6.7997 17.2286 8.90062 18.9326 11.3345 19.9998Z" fill="black"/>
</g>
</g>
<g style="mix-blend-mode:multiply" opacity="0.08">
<g style="mix-blend-mode:multiply" opacity="0.08">
<path d="M6.85804 3.79547C6.84764 3.80454 6.83678 3.8131 6.82548 3.82105C6.09086 4.20077 5.42945 4.70785 4.87202 5.3187C3.41623 6.58148 1.60463 8.60703 0 11.7419V9.75585C0.143236 9.38462 0.311049 9.02337 0.502318 8.67447C0.541852 8.60005 0.583717 8.52563 0.623251 8.45122C0.706971 8.31168 0.788365 8.17448 0.876736 8.03959C0.960455 7.90936 1.04417 7.78146 1.13487 7.65355C1.22556 7.52565 1.32091 7.40239 1.41626 7.27914C1.51161 7.15589 1.61161 7.03728 1.71161 6.92101C1.81161 6.80473 1.91625 6.68845 2.02556 6.5745C2.13486 6.46055 2.24183 6.35125 2.35578 6.24427C2.57903 6.03032 2.81391 5.82567 3.05809 5.63265C3.29762 5.44196 3.54646 5.26522 3.80227 5.09778C3.80897 5.0934 3.81597 5.08952 3.8232 5.08615C3.9511 5.00243 4.08366 4.92336 4.21389 4.84429C4.22156 4.84183 4.22868 4.83787 4.23482 4.83266L4.42319 4.72802C4.58598 4.63964 4.74877 4.55592 4.9162 4.47686C4.99527 4.43732 5.07667 4.40244 5.15806 4.36523C5.25806 4.32104 5.36038 4.27686 5.46038 4.23732C5.61852 4.17454 5.77898 4.11407 5.93945 4.05826C6.02549 4.03035 6.11619 4.00012 6.20456 3.97454C6.26632 3.95198 6.32921 3.93259 6.39293 3.9164C6.54595 3.87221 6.70222 3.83035 6.85804 3.79547Z" fill="black"/>
</g>
</g>
<g style="mix-blend-mode:multiply" opacity="0.08">
<g style="mix-blend-mode:multiply" opacity="0.08">
<path d="M16.4024 7.3092C16.2736 7.00262 16.1228 6.70572 15.9512 6.42084C15.9113 6.33486 15.8605 6.25435 15.8001 6.18131L15.7977 6.17898C15.4984 5.72434 15.1464 5.30671 14.7489 4.93481C14.7466 4.92784 14.7396 4.92318 14.7326 4.91621C13.2094 3.31158 10.4211 1.26742 5.50488 0H9.61877C9.71645 0.0302321 9.81644 0.0581373 9.91412 0.0930205C9.97458 0.111625 10.0327 0.130229 10.0885 0.151159C10.0909 0.151159 10.0932 0.155808 10.0955 0.155808C10.156 0.174412 10.2118 0.195344 10.2676 0.216274C10.3281 0.237204 10.3862 0.260457 10.4443 0.286038C10.4613 0.290186 10.4777 0.29644 10.4932 0.304647C10.5769 0.334879 10.6583 0.369762 10.742 0.406971C10.7769 0.420924 10.8118 0.437198 10.8443 0.453477C10.9606 0.504639 11.0722 0.558127 11.1815 0.61394C11.231 0.635161 11.2791 0.65923 11.3257 0.686032C11.3769 0.711613 11.4234 0.734873 11.4722 0.76278C11.5234 0.786035 11.5699 0.813942 11.6187 0.841848C11.7443 0.911615 11.8676 0.983707 11.9885 1.06045C12.0932 1.12557 12.1978 1.193 12.2978 1.26044C12.3211 1.27672 12.3443 1.29068 12.3676 1.30696C12.4211 1.34649 12.4769 1.3837 12.5327 1.42324C12.5885 1.46277 12.642 1.50462 12.6955 1.54416C12.8001 1.6209 12.9048 1.7023 13.0024 1.78369L13.1559 1.90927C13.2048 1.94881 13.2536 1.99299 13.3024 2.03485L13.3164 2.04881C13.4117 2.1302 13.5024 2.21391 13.5885 2.29763C13.6862 2.38834 13.7768 2.47903 13.8652 2.57438C13.9536 2.66973 14.042 2.76043 14.1303 2.8581C14.2117 2.94647 14.2885 3.03717 14.3675 3.13019C14.371 3.13849 14.3766 3.1457 14.3838 3.15112C14.4675 3.25344 14.5466 3.35577 14.6257 3.45809C14.7047 3.56041 14.7815 3.66739 14.8559 3.77436C14.9303 3.88134 15.0024 3.98599 15.0745 4.09529C15.0768 4.10227 15.0768 4.10459 15.0838 4.10692C15.1489 4.21389 15.2164 4.32087 15.2792 4.43017C15.3257 4.50924 15.3745 4.58831 15.4164 4.67203C15.4489 4.72784 15.4768 4.78365 15.5071 4.83946C15.5373 4.89528 15.5629 4.94877 15.5884 5.00225C15.6187 5.05807 15.6443 5.11155 15.6722 5.16737C15.721 5.26969 15.7675 5.37434 15.814 5.47899C15.8536 5.57434 15.8931 5.66969 15.9303 5.76271C15.9512 5.81387 15.9698 5.86503 15.9884 5.91387C16.0187 5.98363 16.0419 6.05573 16.0675 6.12549C16.0884 6.18363 16.1094 6.2441 16.128 6.30456C16.1326 6.31619 16.1396 6.33944 16.1489 6.372C16.1629 6.42316 16.1838 6.49991 16.207 6.58595C16.2745 6.83711 16.3652 7.17431 16.3954 7.28362C16.3971 7.29229 16.3995 7.30085 16.4024 7.3092Z" fill="black"/>
</g>
</g>
<g style="mix-blend-mode:multiply" opacity="0.25">
<g style="mix-blend-mode:multiply" opacity="0.25">
<path d="M8.24845 19.7953C8.24612 19.793 8.24612 19.793 8.2438 19.793C6.07131 18.5401 4.45981 16.5044 3.7391 14.1023C3.60285 13.6486 3.50101 13.1853 3.43445 12.7163C3.44375 12.7419 3.47863 12.8721 3.54143 13.0791C3.60887 13.3116 3.71352 13.6419 3.85538 14.0256C3.93213 14.2186 4.00887 14.4256 4.1019 14.6395C4.14608 14.7488 4.19725 14.8581 4.25074 14.9698C4.30422 15.0814 4.35306 15.193 4.4112 15.307C4.52283 15.5372 4.65306 15.7651 4.78562 15.9953C4.91818 16.2256 5.0647 16.4558 5.21819 16.6767C5.36703 16.9023 5.52749 17.1209 5.69261 17.3302C5.85773 17.5395 6.02517 17.7418 6.19727 17.9302C6.36936 18.1186 6.53448 18.2976 6.70192 18.4627C6.86937 18.6279 7.02518 18.7767 7.18332 18.9162C7.34146 19.0558 7.47635 19.1767 7.60891 19.286C7.74147 19.3953 7.8531 19.4837 7.94845 19.5604C8.12705 19.699 8.23682 19.7837 8.24845 19.7953Z" fill="black"/>
</g>
</g>
<g style="mix-blend-mode:multiply" opacity="0.25">
<g style="mix-blend-mode:multiply" opacity="0.25">
<path d="M19.881 10.2557C19.391 11.7127 18.5653 13.034 17.4706 14.113C16.3758 15.192 15.0427 15.9984 13.5788 16.4673C13.33 16.5463 13.0788 16.6161 12.823 16.6743C12.8556 16.658 12.9951 16.6022 13.216 16.5184C13.3393 16.4673 13.5091 16.4184 13.6695 16.3417C13.8416 16.2603 14.0486 16.1836 14.2509 16.0789C14.3532 16.0277 14.4602 15.9743 14.5718 15.9208C14.6811 15.8603 14.7927 15.7975 14.909 15.7347C15.0288 15.6726 15.1452 15.6043 15.2578 15.5301C15.3741 15.4557 15.4974 15.3882 15.616 15.3068C15.7346 15.2254 15.8555 15.144 15.9764 15.0603C16.0974 14.9766 16.2113 14.8813 16.3322 14.7929C16.4532 14.7045 16.5695 14.6068 16.6857 14.5092C16.802 14.4115 16.9206 14.3161 17.0276 14.2068C17.1392 14.1022 17.2555 14.0045 17.3625 13.8975C17.4695 13.7906 17.5741 13.6789 17.6788 13.572C17.8741 13.3441 18.0811 13.1324 18.2532 12.9022C18.4369 12.6836 18.5927 12.4534 18.7508 12.2418C18.8229 12.1325 18.8927 12.0232 18.9601 11.9208C19.0297 11.8227 19.0941 11.721 19.1531 11.6162C19.2694 11.4162 19.3811 11.2348 19.4671 11.0674C19.5532 10.8999 19.6392 10.7557 19.6927 10.6301C19.7903 10.4278 19.8601 10.2953 19.881 10.2557Z" fill="black"/>
</g>
</g>
<g style="mix-blend-mode:multiply" opacity="0.25">
<g style="mix-blend-mode:multiply" opacity="0.25">
<path d="M5.751 4.12567L5.27657 4.39543C5.1161 4.48148 4.96264 4.57915 4.80683 4.67218C4.65102 4.7652 4.49986 4.8652 4.34869 4.96054L4.29056 4.99775L4.24172 5.03263L4.12774 5.1117L4.01614 5.19077L3.9603 5.23031L3.93475 5.24891C3.93707 5.24659 3.93937 5.24426 3.93937 5.24193L3.91612 5.26286L3.38589 5.66983L3.25336 5.76983L3.21845 5.79309L3.20685 5.80239H3.2045V5.80472L3.2022 5.80704L3.19522 5.81169L3.13938 5.86053L2.89057 6.08378C2.80685 6.1582 2.72546 6.23262 2.63941 6.30238L2.51381 6.41168L2.40451 6.51633L2.17429 6.74424C2.09987 6.82563 2.02081 6.9047 1.94407 6.98377L1.88593 7.04423L1.87429 7.05586L1.87198 7.05819H1.86965L1.86732 7.06284L1.86267 7.06516L1.83709 7.09772L1.72546 7.2233L1.61616 7.34656L1.565 7.40237L1.51151 7.46516L1.29523 7.72097L1.09524 7.97678L0.990589 8.10701L0.892911 8.23724C0.827796 8.31166 0.765013 8.41631 0.702223 8.50468C0.576643 8.68607 0.446405 8.86746 0.311523 9.0442C0.371988 8.91863 0.43478 8.79537 0.502221 8.67444C0.541755 8.60003 0.58362 8.52561 0.623154 8.45119C0.706874 8.31166 0.788268 8.17445 0.876639 8.03957C0.960359 7.90934 1.04407 7.78143 1.13477 7.65353C1.22547 7.52562 1.32081 7.40237 1.41616 7.27911C1.51151 7.15586 1.61151 7.03726 1.71151 6.92098C1.81151 6.8047 1.91616 6.68843 2.02546 6.57447C2.13476 6.46052 2.24173 6.35122 2.3557 6.24425C2.57895 6.0303 2.81383 5.82565 3.05801 5.63263C3.29755 5.44193 3.54638 5.26519 3.80219 5.09775C3.80886 5.09338 3.81586 5.08949 3.8231 5.08612C3.95103 5.0024 4.08356 4.92333 4.21379 4.84427C4.22146 4.8418 4.2286 4.83785 4.23474 4.83264L4.42311 4.72799C4.5859 4.63962 4.74869 4.5559 4.91613 4.47683C4.9952 4.43729 5.07659 4.40241 5.15799 4.3652C5.25799 4.32102 5.36031 4.27683 5.46031 4.2373C5.55566 4.20009 5.65333 4.16288 5.751 4.12567Z" fill="black"/>
</g>
</g>
<g style="mix-blend-mode:multiply" opacity="0.25">
<g style="mix-blend-mode:multiply" opacity="0.25">
<path d="M15.9299 5.76254C15.8508 5.62534 15.7764 5.49278 15.695 5.3579L15.6345 5.2579C15.6136 5.22069 15.5996 5.19511 15.5764 5.16023L15.4531 4.96255L15.3299 4.76953L15.1996 4.57419L14.9624 4.22768L14.9578 4.22303C14.9488 4.21398 14.941 4.20385 14.9345 4.1928C14.9343 4.19103 14.9335 4.1894 14.9322 4.18815V4.18582L14.7578 3.96024C14.7276 3.92071 14.702 3.8835 14.6694 3.84629L14.5787 3.73234L14.488 3.61606L14.4485 3.56723L14.402 3.50909L14.2299 3.30444L14.2252 3.29979C14.2212 3.29456 14.2165 3.28986 14.2113 3.28584C14.2039 3.27767 14.1969 3.26914 14.1904 3.26025C14.109 3.17421 14.0322 3.08351 13.9555 2.99979L13.6997 2.73236L13.4294 2.46631L13.162 2.21748L13.155 2.21051V2.20818H13.1527C13.0853 2.14772 13.0178 2.08725 12.9457 2.02679L12.8411 1.94307L12.7341 1.8547L12.5202 1.67795L12.4109 1.59191L12.3039 1.51052C12.2643 1.48261 12.2341 1.45935 12.1922 1.43145L12.0853 1.35471L11.9713 1.27331L11.9155 1.23145C11.9085 1.2268 11.8923 1.2175 11.8923 1.21517L11.862 1.19657L11.6295 1.04076L11.4039 0.894246L11.3969 0.891925C11.3248 0.845415 11.2527 0.798904 11.1737 0.754718L10.9411 0.617506L10.7085 0.482627L10.4713 0.354724L10.4644 0.350069L10.4295 0.331469L10.4248 0.329141C10.3179 0.273328 10.2062 0.210537 10.0946 0.154724C10.1551 0.173328 10.2109 0.19426 10.2667 0.21519C10.3272 0.236121 10.3853 0.259372 10.4434 0.284953C10.4604 0.289102 10.4768 0.295355 10.4923 0.303562C10.576 0.333794 10.6574 0.368678 10.7411 0.405886C10.776 0.41984 10.8109 0.436114 10.8434 0.452393C10.9597 0.503555 11.0713 0.557045 11.1806 0.612858C11.2301 0.634076 11.2782 0.658148 11.3248 0.684947C11.376 0.710528 11.4225 0.733788 11.4713 0.761695C11.5225 0.78495 11.569 0.812857 11.6178 0.840764C11.7434 0.91053 11.8667 0.982622 11.9876 1.05936C12.0923 1.12448 12.1969 1.19192 12.2969 1.25936C12.3202 1.27564 12.3434 1.28959 12.3667 1.30587C12.4202 1.34541 12.476 1.38262 12.5318 1.42215C12.5876 1.46168 12.6411 1.50354 12.6946 1.54308C12.7992 1.61982 12.9039 1.70121 13.0015 1.78261L13.155 1.90819C13.2039 1.94772 13.2527 1.99191 13.3015 2.03377L13.3155 2.04772C13.4108 2.12912 13.5015 2.21283 13.5876 2.29655C13.6853 2.38724 13.7759 2.47794 13.8643 2.57329C13.9527 2.66864 14.0411 2.75933 14.1294 2.85701C14.2108 2.94538 14.2876 3.03607 14.3666 3.12909C14.3701 3.1374 14.3757 3.14463 14.3829 3.15002C14.4666 3.25235 14.5457 3.35467 14.6248 3.457C14.7038 3.55932 14.7806 3.6663 14.855 3.77327C14.9294 3.88025 15.0015 3.9849 15.0736 4.0942C15.0759 4.10117 15.0759 4.1035 15.0829 4.10582C15.148 4.2128 15.2155 4.31977 15.2783 4.42907C15.3248 4.50814 15.3736 4.58721 15.4155 4.67093C15.448 4.72674 15.4759 4.78256 15.5062 4.83837C15.5364 4.89418 15.562 4.94767 15.5875 5.00116C15.6178 5.05697 15.6434 5.11046 15.6713 5.16627C15.7201 5.2686 15.7666 5.37325 15.8131 5.4779C15.8531 5.57417 15.8927 5.66952 15.9299 5.76254Z" fill="black"/>
</g>
</g>
<g style="mix-blend-mode:screen" opacity="0.4">
<g style="mix-blend-mode:screen" opacity="0.4">
<path d="M8.24375 19.7918C8.21584 19.7802 8.09026 19.729 7.89957 19.636C7.78794 19.5825 7.65538 19.5174 7.50654 19.4313C7.3577 19.3453 7.19026 19.243 7.0205 19.1244C6.83054 18.9993 6.64733 18.8642 6.47166 18.7197C6.27319 18.5598 6.08301 18.3898 5.90189 18.2104C5.70547 18.0211 5.51991 17.8207 5.34608 17.6104C5.16701 17.3965 4.99491 17.1709 4.83445 16.9383C4.67631 16.7011 4.52747 16.4593 4.39491 16.2151C4.32568 16.0952 4.2628 15.9718 4.20654 15.8453C4.14608 15.7221 4.09026 15.5988 4.0391 15.4779C3.93805 15.2435 3.85031 15.0036 3.77631 14.7593C3.69956 14.5291 3.6484 14.3058 3.59956 14.1012C3.52415 13.7699 3.47438 13.4332 3.45073 13.0942C3.43445 12.8779 3.43445 12.7431 3.43445 12.7151C3.50098 13.1842 3.60282 13.6475 3.7391 14.1012C4.45977 16.5032 6.07126 18.539 8.24375 19.7918Z" fill="white"/>
</g>
</g>
<g style="mix-blend-mode:screen" opacity="0.4">
<g style="mix-blend-mode:screen" opacity="0.4">
<path d="M19.881 10.2557C19.8741 10.2929 19.8392 10.4395 19.781 10.665C19.7485 10.7999 19.6927 10.9581 19.6299 11.1394C19.5606 11.3435 19.4806 11.5438 19.3903 11.7394C19.2996 11.9604 19.1718 12.1836 19.0462 12.4255C18.7475 12.9399 18.401 13.4249 18.0113 13.8743C17.902 13.9882 17.795 14.1045 17.6857 14.2185C17.5764 14.3324 17.4555 14.4417 17.3415 14.551C17.2276 14.6603 17.0997 14.7603 16.9764 14.8603C16.8532 14.9603 16.7322 15.0626 16.602 15.151C16.3544 15.3337 16.0966 15.5022 15.8299 15.6557C15.5821 15.7989 15.3267 15.9285 15.0648 16.044C14.9369 16.0975 14.8183 16.1557 14.6997 16.2022C14.5765 16.244 14.4602 16.2859 14.3462 16.3254C14.1441 16.3973 13.9384 16.4586 13.73 16.5091C13.5684 16.5509 13.4045 16.5836 13.2393 16.6068C13.0067 16.6463 12.8602 16.6696 12.823 16.6743C13.0788 16.6161 13.33 16.5463 13.5788 16.4673C15.0427 15.9984 16.3758 15.192 17.4706 14.113C18.5653 13.034 19.391 11.7127 19.881 10.2557Z" fill="white"/>
</g>
</g>
<g style="mix-blend-mode:screen" opacity="0.4">
<g style="mix-blend-mode:screen" opacity="0.4">
<path d="M3.19519 5.82475C3.20185 5.81142 3.21517 5.81142 3.21517 5.80475V5.81142L3.19519 5.82475Z" fill="white"/>
</g>
</g>
<g style="mix-blend-mode:screen" opacity="0.4">
<g style="mix-blend-mode:screen" opacity="0.4">
<path d="M5.75051 4.12567C5.65284 4.16288 5.55517 4.20009 5.45982 4.2373C5.02527 4.41353 4.60334 4.61943 4.19704 4.85357C4.06914 4.92799 3.94588 5.00473 3.82263 5.08612C3.81435 5.09075 3.80656 5.09619 3.79937 5.1024C3.54305 5.26617 3.29545 5.44314 3.05752 5.63263C2.81329 5.82458 2.5789 6.02869 2.35521 6.24425C2.24126 6.34889 2.12963 6.46052 2.02498 6.57447C1.91568 6.6861 1.81336 6.80238 1.71103 6.92098C1.60871 7.03958 1.5087 7.15818 1.41568 7.27911C1.31568 7.40237 1.22266 7.52795 1.13429 7.65353C1.04592 7.77911 0.959879 7.90934 0.876159 8.03957C0.831974 8.10701 0.787786 8.17445 0.748251 8.24189C0.592439 8.50003 0.44593 8.76514 0.313373 9.03955C0.311048 9.04188 0.308722 9.04653 0.306396 9.04885C0.38314 8.83723 0.464532 8.62793 0.550577 8.42328C0.599414 8.31863 0.629648 8.22096 0.690113 8.11166L0.771507 7.95817L0.852904 7.81399C0.908717 7.71166 0.955226 7.62562 1.02499 7.51632L1.21104 7.23958L1.25755 7.16981L1.31104 7.0954L1.51569 6.83028L1.54126 6.79772L1.57382 6.75819L1.62731 6.69308C1.6994 6.60936 1.76917 6.52331 1.84359 6.43959L2.08312 6.19541L2.14126 6.13494L2.18545 6.09076L2.21335 6.06518L2.3366 5.95355C2.418 5.87913 2.50404 5.80704 2.59009 5.73495L2.84357 5.51867L2.90636 5.46519L2.92962 5.44658L2.93892 5.44193L2.9552 5.42798L2.99008 5.40472L3.12729 5.30937L3.6831 4.94194L3.65984 4.96287C3.68 4.94531 3.70182 4.92973 3.72496 4.91636L3.75286 4.89775L3.81333 4.8652L3.93426 4.80008L4.05518 4.73496L4.1203 4.70008L4.18309 4.66752C4.35053 4.5838 4.5203 4.51404 4.69239 4.44427C4.86448 4.37451 5.04122 4.31637 5.21796 4.25823C5.39238 4.20474 5.57377 4.16288 5.75051 4.12567Z" fill="white"/>
</g>
</g>
<g style="mix-blend-mode:screen" opacity="0.4">
<g style="mix-blend-mode:screen" opacity="0.4">
<path d="M14.1556 3.18384L14.2031 3.27221L14.1912 3.26058C14.1748 3.23728 14.1628 3.2113 14.1556 3.18384Z" fill="white"/>
</g>
</g>
<g style="mix-blend-mode:screen" opacity="0.4">
<g style="mix-blend-mode:screen" opacity="0.4">
<path d="M14.9137 4.14886L14.923 4.17212C14.9191 4.1647 14.916 4.15691 14.9137 4.14886Z" fill="white"/>
</g>
</g>
<g style="mix-blend-mode:screen" opacity="0.4">
<g style="mix-blend-mode:screen" opacity="0.4">
<path d="M14.937 4.19281L15.0295 4.26723C15.0172 4.26355 15.0055 4.25809 14.9948 4.25095C14.9828 4.24504 14.9719 4.23718 14.9624 4.22769L14.9578 4.22304L14.937 4.19281Z" fill="white"/>
</g>
</g>
<g style="mix-blend-mode:screen" opacity="0.4">
<g style="mix-blend-mode:screen" opacity="0.4">
<path d="M15.9303 5.76284C15.8931 5.66981 15.8536 5.57447 15.814 5.47912C15.7675 5.37447 15.7233 5.26982 15.6722 5.1675C15.6443 5.11168 15.6187 5.0582 15.5885 5.00238C15.5652 4.94889 15.535 4.89308 15.5071 4.83959C15.4792 4.78611 15.4489 4.72797 15.4164 4.67215C15.3745 4.58843 15.3257 4.50937 15.2792 4.4303C15.2164 4.321 15.1489 4.21402 15.0838 4.10705C15.0768 4.10472 15.0768 4.1024 15.0745 4.09542C15.0047 3.98612 14.9327 3.87682 14.8559 3.77449C14.7838 3.66752 14.7071 3.56054 14.6257 3.45822C14.5489 3.35589 14.4699 3.25124 14.3839 3.15125C14.3767 3.14585 14.371 3.13862 14.3676 3.13032C14.2908 3.03729 14.2141 2.9466 14.1303 2.85823C14.0443 2.76055 13.9583 2.66753 13.8652 2.57451C13.7769 2.47916 13.6862 2.38847 13.5885 2.29777C13.5025 2.21405 13.4118 2.13034 13.3164 2.04895L13.3025 2.03499C13.2536 1.99313 13.2048 1.94894 13.156 1.90941C13.1048 1.86522 13.0537 1.82336 13.0025 1.78383C12.9048 1.70243 12.8001 1.62104 12.6955 1.5443C12.642 1.50244 12.5885 1.46058 12.5327 1.42337C12.4769 1.38616 12.4211 1.34663 12.3676 1.30709C12.3443 1.29081 12.3211 1.27686 12.2978 1.26058C12.1978 1.19314 12.0932 1.1257 11.9885 1.06059C11.8676 0.983844 11.7444 0.91175 11.6188 0.841983C11.5699 0.814077 11.5234 0.786173 11.4723 0.762917C11.4234 0.73501 11.3769 0.71175 11.3258 0.686169C11.2791 0.659367 11.231 0.635298 11.1816 0.614077C11.0723 0.558264 10.9583 0.504777 10.8444 0.453615C10.8118 0.437336 10.7769 0.421062 10.7421 0.407108C10.6607 0.369899 10.5769 0.339667 10.4932 0.304784C10.4778 0.296577 10.4614 0.290324 10.4444 0.286175C10.3863 0.260594 10.3281 0.237341 10.2676 0.216411C10.2118 0.195481 10.156 0.174549 10.0956 0.155945C10.2165 0.1792 10.3398 0.204785 10.4584 0.239669L10.5211 0.258268L10.5142 0.253622L10.6444 0.290831L10.7769 0.332688L11.0351 0.42571L11.1606 0.472224L11.2886 0.523386C11.37 0.555943 11.4537 0.59315 11.5397 0.630359L11.6676 0.688497L11.8002 0.75594L12.049 0.886171L12.0792 0.902443L12.1165 0.92338L12.1769 0.958261L12.2978 1.02802L12.4234 1.10477C12.4606 1.1257 12.5048 1.15593 12.5443 1.18151L12.6653 1.26058L12.7792 1.33965L13.0071 1.50709L13.1188 1.59081L13.2327 1.6815C13.3048 1.73732 13.3769 1.80011 13.4513 1.86058L13.4559 1.86522L13.4629 1.87453L13.4769 1.88848L13.4699 1.87918L13.7583 2.13964L14.0234 2.4094L14.2838 2.69311C14.3699 2.79311 14.4513 2.88846 14.5327 2.98846L14.5373 2.99776L14.5792 3.07683C14.5722 3.05269 14.5612 3.02988 14.5466 3.00939L14.5536 3.01636L14.728 3.25124L14.7699 3.31171L14.8187 3.37682L14.9001 3.49775L14.9815 3.62101C15.0094 3.66054 15.0373 3.70705 15.0606 3.74659L15.2164 4.0024L15.221 4.0117C15.2061 3.99042 15.1871 3.97226 15.1652 3.95821C15.1489 3.95123 15.142 3.94891 15.1373 3.94658L15.221 4.0117L15.2233 4.01635L15.2303 4.021L15.3396 4.22565L15.3908 4.3303C15.414 4.37448 15.428 4.40239 15.4443 4.4396L15.5443 4.6489L15.5908 4.75587L15.6373 4.86983L15.7233 5.0861C15.7373 5.12099 15.7536 5.16517 15.7652 5.20005L15.8001 5.30935C15.8233 5.38377 15.8536 5.46052 15.8698 5.53493L15.9303 5.76284Z" fill="white"/>
</g>
</g>
<defs>
<linearGradient id="paint0_linear" x1="14.8093" y1="16.7392" x2="14.8093" y2="1.92949" gradientUnits="userSpaceOnUse">
<stop stop-color="#FF5300"/>
<stop offset="1" stop-color="#FF9D00"/>
</linearGradient>
<linearGradient id="paint1_linear" x1="3.90931" y1="14.938" x2="19.4504" y2="14.938" gradientUnits="userSpaceOnUse">
<stop stop-color="#FF5300"/>
<stop offset="1" stop-color="#FF9D00"/>
</linearGradient>
<linearGradient id="paint2_linear" x1="4.31273" y1="4.88115" x2="4.31273" y2="19.7892" gradientUnits="userSpaceOnUse">
<stop stop-color="#FF5300"/>
<stop offset="1" stop-color="#FF9D00"/>
</linearGradient>
<linearGradient id="paint3_linear" x1="16.0248" y1="4.87783" x2="0.820104" y2="4.87783" gradientUnits="userSpaceOnUse">
<stop stop-color="#FF5200"/>
<stop offset="1" stop-color="#FF9D00"/>
</linearGradient>
</defs>
</svg>
